<?xml version="1.0" encoding="UTF-8" standalone="no" ?>
<!DOCTYPE svg PUBLIC "-//W3C//DTD SVG 1.1//EN" "http://www.w3.org/Graphics/SVG/1.1/DTD/svg11.dtd">
<svg xmlns="http://www.w3.org/2000/svg" xmlns:xlink="http://www.w3.org/1999/xlink" version="1.1" width="1080" height="1080" viewBox="0 0 1080 1080" xml:space="preserve">
<desc>Created with Fabric.js 4.2.0</desc>
<defs>
</defs>
<g transform="matrix(1 0 0 1 540 540)" id="0183fff9-b19e-45e4-8bce-8985783323ee"  >
<rect style="stroke: none; stroke-width: 1; stroke-dasharray: none; stroke-linecap: butt; stroke-dashoffset: 0; stroke-linejoin: miter; stroke-miterlimit: 4; fill: rgb(255,255,255); fill-rule: nonzero; opacity: 1;" vector-effect="non-scaling-stroke"  x="-540" y="-540" rx="0" ry="0" width="1080" height="1080" />
</g>
<g transform="matrix(1 0 0 1 540 540)" id="4fc0c23a-07b2-45be-bb72-cbd10f033e6c"  >
</g>
<g transform="matrix(0.65 0 0 0.65 503.27 441.85)" id="d3a95ebc-ffce-498b-89e1-aba82a8531a1"  >
<path style="stroke: rgb(0,0,0); stroke-width: 0; stroke-dasharray: none; stroke-linecap: butt; stroke-dashoffset: 0; stroke-linejoin: miter; stroke-miterlimit: 4; fill: rgb(255,255,255); fill-rule: nonzero; opacity: 1;" vector-effect="non-scaling-stroke"  transform=" translate(-288, -256)" d="M 550.5 241 L 500.411 154.214 C 501.482 152.072 502.286 149.661 502.286 146.982 C 502.286 138.946 495.59 132.249 487.554 131.981 L 432.10699999999997 36.087999999999994 C 432.643 34.480999999999995 433.178 32.873999999999995 433.178 31.266999999999996 C 433.178 22.695999999999998 426.214 15.998999999999995 417.90999999999997 15.998999999999995 C 413.08899999999994 15.998999999999995 409.07099999999997 18.141999999999996 406.12399999999997 21.623999999999995 L 299.518 21.623999999999995 C 296.839 18.143 292.821 16 288 16 C 283.179 16 279.161 18.143 276.48199999999997 21.625 L 170.411 21.625 C 167.464 18.143 163.447 16 158.625 16 C 150.322 16 143.357 22.695999999999998 143.357 31.268 C 143.357 32.875 143.893 34.75 144.429 36.089 L 88.446 133.322 C 83.09 135.732 79.339 140.822 79.339 146.983 C 79.339 147.518 79.607 148.054 79.607 148.59 L 26.302999999999997 240.733 C 19.070999999999998 242.072 13.712999999999997 248.233 13.712999999999997 255.733 C 13.712999999999997 262.96500000000003 18.802 269.126 25.766999999999996 270.733 L 80.946 366.091 C 80.41 367.69800000000004 80.142 369.03700000000003 80.142 370.91200000000003 C 80.142 378.14400000000006 85.231 384.30500000000006 92.196 385.644 L 143.893 475.376 C 143.357 476.983 142.822 478.858 142.822 480.733 C 142.822 489.30400000000003 149.786 496.001 158.09 496.001 C 162.911 496.001 166.929 493.858 169.608 490.64399999999995 L 276.483 490.64399999999995 C 279.161 493.857 283.447 496 288 496 C 292.553 496 296.839 493.857 299.51800000000003 490.643 L 406.66100000000006 490.643 C 409.33900000000006 493.589 413.3570000000001 495.464 417.64300000000003 495.464 C 426.21400000000006 495.464 432.91100000000006 488.5 432.91100000000006 480.196 C 432.91100000000006 478.589 432.64400000000006 477.25 432.10800000000006 475.911 L 483.80500000000006 385.64300000000003 C 490.76900000000006 384.30400000000003 495.85900000000004 378.14300000000003 495.85900000000004 370.91100000000006 C 495.85900000000004 369.30400000000003 495.59100000000007 367.69700000000006 495.05500000000006 366.09000000000003 L 549.9660000000001 270.732 C 556.9300000000002 269.39300000000003 562.2880000000001 263.232 562.2880000000001 255.73200000000003 C 562.2860000000002 248.50000000000003 557.1960000000001 242.33900000000003 550.5000000000001 241.00000000000003 z M 153.535 450.732 L 109.875 374.92900000000003 L 153.535 374.92900000000003 L 153.535 450.732 z M 153.535 366.89300000000003 L 109.875 366.89300000000003 C 109.607 365.822 109.071 364.75100000000003 108.536 363.67900000000003 L 153.535 316.269 L 153.535 366.89300000000003 z M 153.535 304.482 L 103.178 357.78600000000006 C 101.839 357.25000000000006 100.499 356.4460000000001 99.16 356.17900000000003 L 43.447 259.75 C 43.982 258.411 43.982 257.071 43.982 255.732 C 43.982 254.39299999999997 43.982 253.322 43.714 252.25 L 95.679 162.25 C 98.358 161.982 101.036 161.178 103.447 159.571 L 153.536 211.536 L 153.536 304.48199999999997 z M 153.535 202.16000000000003 L 107.732 154.75000000000003 C 109.071 152.60700000000003 109.875 149.92900000000003 109.875 146.98300000000003 C 109.875 146.71500000000003 109.607 146.17900000000003 109.607 145.91100000000003 L 153.535 130.10700000000003 L 153.535 202.16000000000003 z M 153.535 121.53500000000003 L 109.875 137.33900000000003 L 153.535 61.803000000000026 L 153.535 121.53500000000003 z M 480.054 160.64300000000003 L 480.85799999999995 161.98200000000003 L 445.5 329.125 L 381.75 261.89300000000003 L 479.786 160.37500000000003 L 480.054 160.64300000000003 z M 291.75 355.107 L 303.26800000000003 366.89300000000003 L 280.5 366.89300000000003 L 291.75 355.107 z M 291.482 343.857 L 208.17900000000003 258.41100000000006 L 287.732 174.03600000000006 L 370.76800000000003 261.62500000000006 L 291.482 343.8570000000001 z M 296.83900000000006 349.75 L 376.12500000000006 267.51800000000003 L 443.62500000000006 338.76800000000003 L 437.73300000000006 366.89300000000003 L 313.714 366.89300000000003 L 296.839 349.75 z M 410.411 44.393 C 411.482 44.929 412.553 45.465 413.89300000000003 45.733000000000004 L 471.75 146.447 L 471.75 146.983 C 471.75 149.929 472.553 152.607 473.893 154.75 L 376.393 256 L 293.35799999999995 168.411 L 410.411 44.393 z M 401.304 42.25 L 287.732 162.518 L 230.67800000000003 102.25 L 397.01700000000005 42.25 L 401.30400000000003 42.25 z M 277.82099999999997 42.25 C 280.49899999999997 44.928 283.981 46.535 287.99999999999994 46.535 C 292.0189999999999 46.535 295.49999999999994 44.928 298.1789999999999 42.25 L 373.1789999999999 42.25 L 224.786 95.821 L 173.893 42.25 L 277.821 42.25 z M 161.57199999999997 47.875 L 162.64299999999997 45.733 C 163.54670070271976 45.50204234276192 164.4404642303019 45.23381319898587 165.32199999999997 44.929 L 216.48299999999998 98.769 L 161.57199999999997 118.59 L 161.57199999999997 47.875 z M 161.57199999999997 127.161 L 222.37499999999997 105.197 L 282.10699999999997 168.411 L 202.55399999999997 252.518 L 161.57199999999997 210.465 L 161.57199999999997 127.161 z M 161.57199999999997 219.839 L 198 257.607 L 161.572 295.91100000000006 L 161.572 219.83900000000006 z M 161.57199999999997 307.697 L 203.62499999999997 263.233 L 286.393 349.21500000000003 L 269.25 366.89300000000003 L 161.572 366.89300000000003 L 161.572 307.697 z M 168.53599999999997 469.75 C 166.92899999999997 468.143 165.05399999999997 467.072 162.64299999999997 466.268 L 161.57199999999997 464.66099999999994 L 161.57199999999997 374.929 L 261.48199999999997 374.929 L 169.87499999999997 469.75 L 168.53599999999997 469.75 z M 298.447 469.75 C 295.76800000000003 467.34 292.019 465.465 288 465.465 C 283.981 465.465 280.233 467.34 277.553 469.75 L 181.124 469.75 L 272.731 374.929 L 311.03499999999997 374.929 L 402.64199999999994 469.75 L 298.447 469.75 z M 418.447 457.964 L 414.161 465.464 C 412.822 465.73199999999997 411.751 466.267 410.679 466.803 L 321.48299999999995 374.928 L 435.8589999999999 374.928 L 418.44699999999995 457.964 z M 431.303 435.73199999999997 L 444.161 374.929 L 466.125 374.929 L 431.303 435.73199999999997 z M 466.125 366.893 L 445.76800000000003 366.893 L 450.321 345.73299999999995 L 467.46400000000006 363.94699999999995 C 466.92900000000003 364.74999999999994 466.39300000000003 365.82099999999997 466.12500000000006 366.893 z M 532.2860000000001 259.48199999999997 L 476.83900000000006 356.179 C 475.50000000000006 356.714 474.1600000000001 357.25 472.8210000000001 358.053 L 452.1960000000001 336.089 L 486.7500000000001 172.161 L 532.5530000000001 251.447 C 532.2860000000001 252.786 531.7500000000001 254.125 531.7500000000001 255.732 C 531.7500000000001 257.071 532.0180000000001 258.143 532.2860000000001 259.48199999999997 z" stroke-linecap="round" />
</g>
</svg>